<?xml version="1.0" encoding="UTF-8"?>
<svg id="Capa_2" data-name="Capa 2" xmlns="http://www.w3.org/2000/svg" xmlns:xlink="http://www.w3.org/1999/xlink" viewBox="0 0 790.65 934.06">
  <defs>
    <style>
      .cls-1 {
        fill: url(#Degradado_sin_nombre_15);
      }
    </style>
    <linearGradient id="Degradado_sin_nombre_15" data-name="Degradado sin nombre 15" x1="725.79" y1="-87.9" x2="-169.4" y2="1087.95" gradientUnits="userSpaceOnUse">
      <stop offset="0" stop-color="#2d79e5"/>
      <stop offset="1" stop-color="#2666c1"/>
    </linearGradient>
  </defs>
  <g id="Capa_1-2" data-name="Capa 1">
    <path class="cls-1" d="M510.38,224.2h3.85s2.14,0,2.14,0h6.87s57.14,0,57.14,0h5.84l128.82.29,1.86-59.04c-59.42-23.61-119.46-42.66-180.85-58.92-4.25-.53-7.36-1.36-10.89-3.41l29.3-67.55c28.54,6.78,55.41,15.49,83.14,24.32,32.79,10.45,64.36,21.07,96.26,33.64l34.81,13.42c12.28,4.74,20.9,15.78,21.45,29.28,3.42,84.28-10.58,184.96-15.7,266.66l-.42,6.72-17.06,129.21c-5.9,44.64-24.47,86.06-47.05,125.02-29.99,51.74-68.36,98.09-112.47,138.44-55.64,50.9-117.89,93.85-185.11,127.37-9.87,4.92-20.37,6.16-29.99,1.48l-28.22-13.75c-.12-3.47,11.48-20.46,13.44-23.07,6.14-8.21,11.23-16.59,16.93-25.22,2.93-4.43,5.22-11.45,10.25-13.05l9.46-3.01c36.82-11.73,142.4-99.3,177.13-137.01,26.5-28.77,49.45-59.46,68.11-93.82,21.72-39.99,32.36-71.73,38.27-117.02l8.75-67.12,11-108.91c.12-1.15-.47-1.82-1.36-1.23l-40.66,61.22-36.54,54.81-69.93,103.91-51.54,76.64-67.53,100.34-57.93,85.9-17.7,26.5-41.13,61.88c-71.16-42.99-136.53-96.48-189.63-160.19-45.21-54.25-89.92-131.46-99.99-201.87l-7.69-53.75c-1.21-8.49-3.05-16.45-3.63-25.04l-.69-10.12-6-52.69-.61-9.52C9.86,308.05-2.36,216.52.4,135.93c.43-12.4,8.95-23.52,20.73-28.34,39-15.96,77.57-30.98,118.09-43.3l83.66-25.44C249.1,30.88,383.97-3.51,404.35.29c39.26,7.32,77.58,16.3,116.15,26.23l-16.64,39.44-69.14,157.98,75.66.25ZM121.24,506.2c1.09-3.22,2.61-5.23,4.06-8.54l77.3-175.31,65.96-149.88,10.58-24.79,22.85-52.78c-45.89,11.05-90.13,23.17-134.78,37.12-31.84,9.95-62.18,21.57-93.76,33.42.74,40.38,3.1,79.56,6.09,119.82,5.55,74.78,13.7,148.45,23.94,222.45,1.31,9.45,2.14,17.42,5.04,27.08,4.09-10.11,9.34-18.61,12.71-28.58ZM463.64,316.08c5.96-1.6,8.46-6.29,8.16-11.28-.24-3.93-3.44-9.19-8.75-9.19l-174.27-.13c-5.73.92-9.07,4.96-9.15,10.24-.06,4.3,3.11,10.26,8.8,10.26l175.22.1ZM344.43,554.35c7.43,7.58,21.62,28.51,33.75,15.63l15.01-15.93c6.28-6.66,12.5-12.69,18.84-19.3l29.27-30.57,20.04-20.97,24.49-25.5,24.01-25.02,23.49-24.52,23.18-24,34.83-36.04c5.14-5.32,9.18-12.56,2.74-19.21l-26.31-27.15c-5.18-5.34-11.73-7.73-18.2-3.14-5.14,3.64-8.8,8.95-13.28,13.59l-46.09,47.83-33.82,35.19-13.32,13.79-20.88,22.07-27.54,28.52-26.12,26.7c-9.2-9.14-17.43-17.41-26.08-26.25l-34.65-35.42c-5.48-6.46-14.6-6.82-20.46-.27-8.17,9.12-16.56,17.76-25.78,25.84-6.3,5.52-5.4,14.16,0,19.67l36.15,36.79,46.74,47.68ZM405.48,365.7c6.76-.01,8.16-8.36,7.26-12.43-1.18-5.34-5.62-7.8-11.53-7.78l-113.27.36c-5.39.02-8.53,6.34-8.02,10.5s3.29,9.59,8.41,9.58l117.14-.23ZM233.18,739.05c3.43,3.08,5.48,7.57,10.28,10.13,2.55,1.35,3.9,5.72,6.97,6.03,18.35,17.75,38.66,33.78,60.37,48.72l25.3-87.15,21.52-72.47-200.23.08c-2.51,0-.93,3.67-.13,4.85,22.18,32.54,46.84,63.75,75.91,89.82Z"/>
  </g>
</svg>