<?xml version="1.0" encoding="UTF-8"?>
<svg id="Capa_2" data-name="Capa 2" xmlns="http://www.w3.org/2000/svg" xmlns:xlink="http://www.w3.org/1999/xlink" viewBox="0 0 1881.18 1114.42">
  <defs>
    <style>
      .cls-1 {
        fill: #fff;
      }

      .cls-2 {
        fill: url(#Degradado_sin_nombre_21);
      }
    </style>
    <linearGradient id="Degradado_sin_nombre_21" data-name="Degradado sin nombre 21" x1="740.09" y1="438.32" x2="1147.48" y2="30.92" gradientUnits="userSpaceOnUse">
      <stop offset="0" stop-color="#06b1d7"/>
      <stop offset="1" stop-color="#216dea"/>
    </linearGradient>
  </defs>
  <g id="Capa_1-2" data-name="Capa 1">
    <path class="cls-2" d="M1017.16,143.24h2.46s1.37,0,1.37,0h4.39s36.51,0,36.51,0h3.73s82.3.18,82.3.18l1.19-37.72c-37.97-15.09-76.32-27.26-115.54-37.64-2.72-.34-4.7-.87-6.96-2.18l18.72-43.16c18.23,4.33,35.4,9.9,53.12,15.54,20.95,6.67,41.12,13.46,61.5,21.5l22.24,8.58c7.85,3.03,13.36,10.08,13.71,18.7,2.19,53.84-6.76,118.17-10.03,170.37l-.27,4.3-10.9,82.55c-3.77,28.52-15.63,54.99-30.06,79.88-19.16,33.06-43.68,62.67-71.86,88.45-35.55,32.52-75.32,59.96-118.27,81.38-6.31,3.14-13.01,3.94-19.16.95l-18.03-8.78c-.07-2.22,7.33-13.06,8.58-14.74,3.92-5.25,7.18-10.6,10.82-16.11,1.87-2.83,3.33-7.32,6.55-8.34l6.04-1.92c23.52-7.49,90.98-63.45,113.17-87.54,16.93-18.38,31.59-37.99,43.51-59.94,13.7-25.23,20.63-45.58,24.36-74.17l5.61-42.92,7.12-70.7c-.17-.56-.83-.34-1.17.17l-25.45,38.34-23.61,35.4-44.68,66.39-32.93,48.97-43.15,64.11-37.01,54.88-11.31,16.93-26.28,39.54c-45.47-27.47-87.23-61.64-121.16-102.35-28.89-34.66-57.45-83.99-63.89-128.98l-4.92-34.34c-.78-5.42-1.95-10.51-2.32-16l-.44-6.47-3.83-33.67-.39-6.08c-3.17-49.75-10.98-108.25-9.22-159.73.27-7.93,5.72-15.03,13.24-18.11,24.92-10.19,49.56-19.79,75.45-27.66l53.45-16.25c16.76-5.09,102.92-27.07,115.95-24.64,25.08,4.68,49.57,10.41,74.21,16.76l-10.63,25.2-44.17,100.94,48.34.16ZM768.54,323.41c.7-2.05,1.67-3.34,2.6-5.45l49.39-112.01,42.14-95.76,6.76-15.84,14.6-33.72c-29.32,7.06-57.58,14.8-86.11,23.72-20.34,6.35-39.73,13.78-59.91,21.35.48,25.8,1.98,50.83,3.89,76.55,3.55,47.78,8.75,94.85,15.3,142.13.84,6.04,1.37,11.13,3.22,17.3,2.61-6.46,5.96-11.89,8.12-18.26ZM987.3,201.94c3.81-1.02,5.41-4.02,5.21-7.21-.15-2.51-2.2-5.87-5.59-5.87l-111.35-.08c-3.66.59-5.8,3.17-5.85,6.54-.04,2.75,1.99,6.55,5.63,6.56l111.95.07ZM911.14,354.18c4.75,4.85,13.81,18.21,21.56,9.98l9.59-10.18c4.01-4.26,7.99-8.11,12.04-12.33l18.7-19.53,12.81-13.4,15.64-16.29,15.34-15.99,15.01-15.67,14.81-15.33,22.25-23.03c3.29-3.4,5.87-8.02,1.75-12.27l-16.81-17.35c-3.31-3.41-7.5-4.94-11.63-2.01-3.28,2.33-5.63,5.72-8.49,8.69l-29.45,30.56-21.61,22.48-8.51,8.81-13.34,14.1-17.28,17.89-17,17.39c-5.88-5.83-11.14-11.12-16.66-16.77l-22.14-22.63c-3.5-4.12-9.33-4.36-13.07-.17-5.22,5.83-10.58,11.35-16.47,16.51-4.02,3.53-3.45,9.05,0,12.56l23.1,23.5,29.86,30.46ZM950.14,233.65c4.32,0,5.21-5.34,4.64-7.94-.75-3.41-3.59-4.98-7.37-4.97l-72.37.23c-3.44.01-5.45,4.05-5.12,6.71s2.1,6.13,5.38,6.12l74.84-.14ZM840.05,472.18c2.19,1.97,3.51,4.84,6.57,6.47,1.63.87,2.49,3.65,4.46,3.85,11.73,11.34,24.7,21.58,38.57,31.13l16.17-55.68,13.75-46.3-127.93.05c-1.6,0-.59,2.35-.08,3.1,14.17,20.79,29.93,40.73,48.49,57.39Z"/>
    <g>
      <g>
        <path class="cls-1" d="M56.95,699.83h74.53c42.81,0,69.18,23.31,69.18,59.24,0,8.79-1.53,16.43-2.29,19.87l-3.44,16.05c-11.08,52.36-32.87,68.8-90.2,68.8h-28.28l-21.79,103.58H0l56.95-267.54ZM109.69,817.17c19.49,0,27.14-6.88,31.72-28.28l3.44-16.05c.76-3.82.76-5.35.76-7.64,0-12.23-7.26-18.73-21.4-18.73h-22.55l-15.29,70.71h23.31Z"/>
        <path class="cls-1" d="M338.63,772.83l-10.32,49.3c-4.59-1.53-12.61-2.29-18.73-2.29-25.23,0-41.28,13.38-47.39,41.66l-22.55,105.87h-52.74l41.66-194.92h45.1l-6.12,36.31c11.08-27.14,27.52-40.13,51.6-40.13,9.17,0,15.67,1.91,19.49,4.2Z"/>
        <path class="cls-1" d="M500.3,828.25c0,6.5-.76,12.61-2.29,19.88l-7.26,34.4h-102.05l-4.21,20.26c-.38,1.91-.76,4.2-.76,6.5,0,13.76,11.47,19.49,25.99,19.49,15.29,0,24.08-8.41,26.75-25.61h49.69c-5.73,43.19-34.4,68.03-80.26,68.03-40.13,0-74.15-18.73-74.15-59.62,0-7.64,1.15-14.52,2.29-19.87l12.61-59.24c8.79-40.9,34.4-63.83,79.12-63.83,40.51,0,74.53,18.73,74.53,59.62ZM447.18,846.22l1.91-9.55c.38-2.29.76-3.82.76-6.5,0-14.91-12.23-19.49-24.46-19.49-14.14,0-22.55,6.5-25.61,20.64l-3.06,14.91h50.45Z"/>
        <path class="cls-1" d="M620.69,822.9c0-8.03-6.5-13.76-19.11-13.76-14.52,0-21.79,7.64-21.79,17.58,0,13.38,12.61,17.58,32.87,25.61,22.17,8.79,43.57,19.49,43.57,52.36,0,37.07-26.75,66.5-75.68,66.5-37.07,0-72.24-17.2-72.24-55.04,0-3.44.38-7.64,1.15-12.23h49.69c-.76,4.97-1.15,7.26-1.15,9.55,0,10.32,8.03,17.2,22.17,17.2,14.91,0,23.31-8.03,23.31-18.35,0-14.14-14.91-17.96-31.72-24.46-24.84-9.55-43.19-21.4-43.19-54.27,0-40.51,28.28-64.97,71.85-64.97,36.31,0,69.56,16.82,69.56,50.83,0,3.82-.38,8.03-1.15,11.47h-48.54c.38-3.44.38-5.73.38-8.03Z"/>
        <path class="cls-1" d="M788.09,822.9c0-8.03-6.5-13.76-19.11-13.76-14.52,0-21.79,7.64-21.79,17.58,0,13.38,12.61,17.58,32.87,25.61,22.17,8.79,43.57,19.49,43.57,52.36,0,37.07-26.75,66.5-75.68,66.5-37.07,0-72.24-17.2-72.24-55.04,0-3.44.38-7.64,1.15-12.23h49.69c-.76,4.97-1.15,7.26-1.15,9.55,0,10.32,8.03,17.2,22.17,17.2,14.91,0,23.31-8.03,23.31-18.35,0-14.14-14.91-17.96-31.72-24.46-24.84-9.55-43.19-21.4-43.19-54.27,0-40.51,28.28-64.97,71.85-64.97,36.31,0,69.56,16.82,69.56,50.83,0,3.82-.38,8.03-1.15,11.47h-48.54c.38-3.44.38-5.73.38-8.03Z"/>
        <path class="cls-1" d="M899.31,699.83h74.53c42.81,0,69.18,23.31,69.18,59.24,0,8.79-1.53,16.43-2.29,19.87l-3.44,16.05c-11.08,52.36-32.87,68.8-90.2,68.8h-28.28l-21.79,103.58h-54.66l56.95-267.54ZM952.06,817.17c19.49,0,27.14-6.88,31.72-28.28l3.44-16.05c.76-3.82.76-5.35.76-7.64,0-12.23-7.26-18.73-21.4-18.73h-22.55l-15.29,70.71h23.31Z"/>
        <path class="cls-1" d="M1223.8,772.45l-41.66,194.92h-45.1l5.35-30.58c-10.32,21.79-28.67,34.4-54.65,34.4-30.19,0-48.16-16.43-48.16-47.01,0-7.64,1.15-15.29,2.68-22.55l27.52-129.18h53.13l-25.99,123.07c-1.15,4.97-1.53,9.56-1.53,12.23,0,14.14,9.17,19.11,20.26,19.11,14.91,0,23.31-8.79,28.28-26.75l27.14-127.66h52.74Z"/>
        <path class="cls-1" d="M1396.55,828.25c0,6.5-.76,12.61-2.29,19.88l-7.26,34.4h-102.05l-4.21,20.26c-.38,1.91-.76,4.2-.76,6.5,0,13.76,11.47,19.49,25.99,19.49,15.29,0,24.08-8.41,26.75-25.61h49.69c-5.73,43.19-34.4,68.03-80.26,68.03-40.13,0-74.15-18.73-74.15-59.62,0-7.64,1.15-14.52,2.29-19.87l12.61-59.24c8.79-40.9,34.4-63.83,79.12-63.83,40.51,0,74.53,18.73,74.53,59.62ZM1343.43,846.22l1.91-9.55c.38-2.29.76-3.82.76-6.5,0-14.91-12.23-19.49-24.46-19.49-14.14,0-22.55,6.5-25.61,20.64l-3.06,14.91h50.45Z"/>
        <path class="cls-1" d="M1516.94,822.9c0-8.03-6.5-13.76-19.11-13.76-14.52,0-21.79,7.64-21.79,17.58,0,13.38,12.61,17.58,32.87,25.61,22.17,8.79,43.57,19.49,43.57,52.36,0,37.07-26.75,66.5-75.68,66.5-37.07,0-72.24-17.2-72.24-55.04,0-3.44.38-7.64,1.15-12.23h49.69c-.76,4.97-1.15,7.26-1.15,9.55,0,10.32,8.03,17.2,22.17,17.2,14.91,0,23.31-8.03,23.31-18.35,0-14.14-14.91-17.96-31.72-24.46-24.84-9.55-43.19-21.4-43.19-54.27,0-40.51,28.28-64.97,71.85-64.97,36.31,0,69.56,16.82,69.56,50.83,0,3.82-.38,8.03-1.15,11.47h-48.54c.38-3.44.38-5.73.38-8.03Z"/>
        <path class="cls-1" d="M1650.33,902.02c-.76,3.06-1.15,5.73-1.15,8.41,0,11.85,7.26,14.91,22.17,14.91,3.82,0,7.64-.38,12.23-1.15l-9.17,44.33c-6.12,1.91-12.23,2.68-18.73,2.68-38.6,0-60.77-13.76-60.77-47.39,0-5.73.76-12.23,2.29-19.11l19.11-90.2h-27.52l9.17-42.04h29.05l14.52-49.69h47.01l-10.7,49.69h37.07l-9.17,42.04h-36.69l-18.73,87.52Z"/>
        <path class="cls-1" d="M1713.4,911.57c0-6.5.76-12.61,2.29-19.87l12.61-59.24c8.79-41.28,35.54-63.83,79.5-63.83,40.13,0,73.38,19.11,73.38,59.62,0,6.5-.76,12.61-2.29,19.88l-12.61,59.24c-8.79,41.28-35.54,63.83-79.5,63.83-40.13,0-73.38-19.11-73.38-59.62ZM1813.92,905.46l14.52-66.12c.38-1.53.76-4.59.76-6.88,0-11.85-8.41-19.49-22.93-19.49s-22.17,7.64-25.23,21.4l-14.52,66.12c-.38,1.53-.76,4.21-.76,6.88,0,11.85,7.64,19.49,22.55,19.49s22.55-7.64,25.61-21.4Z"/>
      </g>
      <g>
        <path class="cls-1" d="M1429.14,1091.03h21.83l-4.68,21.83h-21.83l4.68-21.83Z"/>
        <path class="cls-1" d="M1465.79,1090.09c0-2.65.31-5.15.94-8.11l5.15-24.17c3.59-16.84,14.5-26.04,32.43-26.04,16.37,0,29.94,7.8,29.94,24.32,0,2.65-.31,5.15-.94,8.11l-5.15,24.17c-3.59,16.84-14.5,26.04-32.43,26.04-16.37,0-29.94-7.8-29.94-24.33ZM1506.79,1087.6l5.92-26.98c.16-.62.31-1.87.31-2.81,0-4.83-3.43-7.95-9.36-7.95s-9.04,3.12-10.29,8.73l-5.93,26.98c-.16.62-.31,1.72-.31,2.81,0,4.83,3.12,7.95,9.2,7.95s9.2-3.12,10.45-8.73Z"/>
        <path class="cls-1" d="M1610.96,1050.95c0,3.12-.47,6.24-1.09,9.2l-11.23,52.7h-21.67l10.6-50.21c.47-2.03.62-3.9.62-4.99,0-5.77-3.74-7.8-8.26-7.8-6.08,0-9.51,3.59-11.54,10.92l-11.07,52.08h-21.52l17-79.52h18.4l-2.18,12.47c4.21-8.89,11.7-14.03,22.3-14.03,12.32,0,19.65,6.71,19.65,19.18Z"/>
        <path class="cls-1" d="M1636.38,1003.71h21.52l-23.23,109.15h-21.52l23.23-109.15Z"/>
        <path class="cls-1" d="M1667.25,1033.33h21.52l-16.84,79.52h-21.52l16.84-79.52ZM1674.11,1001.68h21.05l-4.37,21.05h-21.05l4.37-21.05Z"/>
        <path class="cls-1" d="M1762.53,1050.95c0,3.12-.47,6.24-1.09,9.2l-11.23,52.7h-21.67l10.6-50.21c.47-2.03.62-3.9.62-4.99,0-5.77-3.74-7.8-8.26-7.8-6.08,0-9.51,3.59-11.54,10.92l-11.07,52.08h-21.52l17-79.52h18.4l-2.18,12.47c4.21-8.89,11.7-14.03,22.3-14.03,12.32,0,19.65,6.71,19.65,19.18Z"/>
        <path class="cls-1" d="M1837.22,1056.1c0,2.65-.31,5.15-.94,8.11l-2.96,14.03h-41.63l-1.71,8.26c-.16.78-.31,1.72-.31,2.65,0,5.61,4.68,7.95,10.6,7.95,6.24,0,9.82-3.43,10.92-10.45h20.27c-2.34,17.62-14.03,27.76-32.75,27.76-16.37,0-30.25-7.64-30.25-24.33,0-3.12.47-5.93.94-8.11l5.15-24.17c3.59-16.68,14.03-26.04,32.28-26.04,16.53,0,30.41,7.64,30.41,24.32ZM1815.54,1063.43l.78-3.9c.16-.94.31-1.56.31-2.65,0-6.08-4.99-7.95-9.98-7.95-5.77,0-9.2,2.65-10.45,8.42l-1.25,6.08h20.58Z"/>
      </g>
    </g>
  </g>
</svg>