<?xml version="1.0" encoding="UTF-8"?>
<svg id="Capa_2" data-name="Capa 2" xmlns="http://www.w3.org/2000/svg" xmlns:xlink="http://www.w3.org/1999/xlink" viewBox="0 0 1888.06 1150.28">
  <defs>
    <style>
      .cls-1 {
        letter-spacing: 0em;
      }

      .cls-2 {
        letter-spacing: 0em;
      }

      .cls-3 {
        letter-spacing: 0em;
      }

      .cls-4 {
        font-size: 382.2px;
      }

      .cls-4, .cls-5 {
        fill: #fff;
        font-family: BebasNeuePro-ExpEbIt, 'Bebas Neue Pro';
        font-style: italic;
      }

      .cls-6 {
        letter-spacing: 0em;
      }

      .cls-7 {
        letter-spacing: 0em;
      }

      .cls-5 {
        font-size: 155.94px;
      }

      .cls-8 {
        fill: url(#Degradado_sin_nombre_21);
      }

      .cls-9 {
        letter-spacing: 0em;
      }
    </style>
    <linearGradient id="Degradado_sin_nombre_21" data-name="Degradado sin nombre 21" x1="740.47" y1="438.32" x2="1147.86" y2="30.92" gradientUnits="userSpaceOnUse">
      <stop offset="0" stop-color="#06b1d7"/>
      <stop offset="1" stop-color="#216dea"/>
    </linearGradient>
  </defs>
  <g id="Capa_1-2" data-name="Capa 1">
    <path class="cls-8" d="M1017.54,143.24h2.46s1.37,0,1.37,0h4.39s36.51,0,36.51,0h3.73s82.3.18,82.3.18l1.19-37.72c-37.97-15.09-76.32-27.26-115.54-37.64-2.72-.34-4.7-.87-6.96-2.18l18.72-43.16c18.23,4.33,35.4,9.9,53.12,15.54,20.95,6.67,41.12,13.46,61.5,21.5l22.24,8.58c7.85,3.03,13.36,10.08,13.71,18.7,2.19,53.84-6.76,118.17-10.03,170.37l-.27,4.3-10.9,82.55c-3.77,28.52-15.63,54.99-30.06,79.88-19.16,33.06-43.68,62.67-71.86,88.45-35.55,32.52-75.32,59.96-118.27,81.38-6.31,3.14-13.01,3.94-19.16.95l-18.03-8.78c-.07-2.22,7.33-13.06,8.58-14.74,3.92-5.25,7.18-10.6,10.82-16.11,1.87-2.83,3.33-7.32,6.55-8.34l6.04-1.92c23.52-7.49,90.98-63.45,113.17-87.54,16.93-18.38,31.59-37.99,43.51-59.94,13.7-25.23,20.63-45.58,24.36-74.17l5.61-42.92,7.12-70.7c-.17-.56-.83-.34-1.17.17l-25.45,38.34-23.61,35.4-44.68,66.39-32.93,48.97-43.15,64.11-37.01,54.88-11.31,16.93-26.28,39.54c-45.47-27.47-87.23-61.64-121.16-102.35-28.89-34.66-57.45-83.99-63.89-128.98l-4.92-34.34c-.78-5.42-1.95-10.51-2.32-16l-.44-6.47-3.83-33.67-.39-6.08c-3.17-49.75-10.98-108.25-9.22-159.73.27-7.93,5.72-15.03,13.24-18.11,24.92-10.19,49.56-19.79,75.45-27.66l53.45-16.25c16.76-5.09,102.92-27.07,115.95-24.64,25.08,4.68,49.57,10.41,74.21,16.76l-10.63,25.2-44.17,100.94,48.34.16ZM768.92,323.41c.7-2.05,1.67-3.34,2.6-5.45l49.39-112.01,42.14-95.76,6.76-15.84,14.6-33.72c-29.32,7.06-57.58,14.8-86.11,23.72-20.34,6.35-39.73,13.78-59.91,21.35.48,25.8,1.98,50.83,3.89,76.55,3.55,47.78,8.75,94.85,15.3,142.13.84,6.04,1.37,11.13,3.22,17.3,2.61-6.46,5.96-11.89,8.12-18.26ZM987.68,201.94c3.81-1.02,5.41-4.02,5.21-7.21-.15-2.51-2.2-5.87-5.59-5.87l-111.35-.08c-3.66.59-5.8,3.17-5.85,6.54-.04,2.75,1.99,6.55,5.63,6.56l111.95.07ZM911.52,354.18c4.75,4.85,13.81,18.21,21.56,9.98l9.59-10.18c4.01-4.26,7.99-8.11,12.04-12.33l18.7-19.53,12.81-13.4,15.64-16.29,15.34-15.99,15.01-15.67,14.81-15.33,22.25-23.03c3.29-3.4,5.87-8.02,1.75-12.27l-16.81-17.35c-3.31-3.41-7.5-4.94-11.63-2.01-3.28,2.33-5.63,5.72-8.49,8.69l-29.45,30.56-21.61,22.48-8.51,8.81-13.34,14.1-17.28,17.89-17,17.39c-5.88-5.83-11.14-11.12-16.66-16.77l-22.14-22.63c-3.5-4.12-9.33-4.36-13.07-.17-5.22,5.83-10.58,11.35-16.47,16.51-4.02,3.53-3.45,9.05,0,12.56l23.1,23.5,29.86,30.46ZM950.52,233.65c4.32,0,5.21-5.34,4.64-7.94-.75-3.41-3.59-4.98-7.37-4.97l-72.37.23c-3.44.01-5.45,4.05-5.12,6.71s2.1,6.13,5.38,6.12l74.84-.14ZM840.44,472.18c2.19,1.97,3.51,4.84,6.57,6.47,1.63.87,2.49,3.65,4.46,3.85,11.73,11.34,24.7,21.58,38.57,31.13l16.17-55.68,13.75-46.3-127.93.05c-1.6,0-.59,2.35-.08,3.1,14.17,20.79,29.93,40.73,48.49,57.39Z"/>
    <g>
      <text class="cls-4" transform="translate(0 967.37)"><tspan x="0" y="0">P</tspan><tspan class="cls-7" x="189.95" y="0">r</tspan><tspan x="325.25" y="0">e</tspan><tspan class="cls-1" x="506.8" y="0">s</tspan><tspan x="674.2" y="0">sPue</tspan><tspan class="cls-2" x="1403.05" y="0">s</tspan><tspan class="cls-9" x="1569.31" y="0">t</tspan><tspan x="1706.9" y="0">o</tspan></text>
      <text class="cls-5" transform="translate(1424.22 1112.86)"><tspan class="cls-3" x="0" y="0">.</tspan><tspan class="cls-6" x="39.14" y="0">online</tspan></text>
    </g>
  </g>
</svg>