<?xml version="1.0" encoding="UTF-8"?>
<svg id="Capa_2" data-name="Capa 2" xmlns="http://www.w3.org/2000/svg" xmlns:xlink="http://www.w3.org/1999/xlink" viewBox="0 0 2277.34 967.37">
  <defs>
    <style>
      .cls-1 {
        fill: #fff;
      }

      .cls-2 {
        fill: url(#Degradado_sin_nombre_21);
      }
    </style>
    <linearGradient id="Degradado_sin_nombre_21" data-name="Degradado sin nombre 21" x1="938.07" y1="438.32" x2="1345.47" y2="30.92" gradientUnits="userSpaceOnUse">
      <stop offset="0" stop-color="#06b1d7"/>
      <stop offset="1" stop-color="#216dea"/>
    </linearGradient>
  </defs>
  <g id="Capa_1-2" data-name="Capa 1">
    <path class="cls-2" d="M1215.15,143.24h2.46s1.37,0,1.37,0h4.39s36.51,0,36.51,0h3.73s82.3.18,82.3.18l1.19-37.72c-37.97-15.09-76.32-27.26-115.54-37.64-2.72-.34-4.7-.87-6.96-2.18l18.72-43.16c18.23,4.33,35.4,9.9,53.12,15.54,20.95,6.67,41.12,13.46,61.5,21.5l22.24,8.58c7.85,3.03,13.36,10.08,13.71,18.7,2.19,53.84-6.76,118.17-10.03,170.37l-.27,4.3-10.9,82.55c-3.77,28.52-15.63,54.99-30.06,79.88-19.16,33.06-43.68,62.67-71.86,88.45-35.55,32.52-75.32,59.96-118.27,81.38-6.31,3.14-13.01,3.94-19.16.95l-18.03-8.78c-.07-2.22,7.33-13.06,8.58-14.74,3.92-5.25,7.18-10.6,10.82-16.11,1.87-2.83,3.33-7.32,6.55-8.34l6.04-1.92c23.52-7.49,90.98-63.45,113.17-87.54,16.93-18.38,31.59-37.99,43.51-59.94,13.7-25.23,20.63-45.58,24.36-74.17l5.61-42.92,7.12-70.7c-.17-.56-.83-.34-1.17.17l-25.45,38.34-23.61,35.4-44.68,66.39-32.93,48.97-43.15,64.11-37.01,54.88-11.31,16.93-26.28,39.54c-45.47-27.47-87.23-61.64-121.16-102.35-28.89-34.66-57.45-83.99-63.89-128.98l-4.92-34.34c-.78-5.42-1.95-10.51-2.32-16l-.44-6.47-3.83-33.67-.39-6.08c-3.17-49.75-10.98-108.25-9.22-159.73.27-7.93,5.72-15.03,13.24-18.11,24.92-10.19,49.56-19.79,75.45-27.66l53.45-16.25c16.76-5.09,102.92-27.07,115.95-24.64,25.08,4.68,49.57,10.41,74.21,16.76l-10.63,25.2-44.17,100.94,48.34.16ZM966.52,323.41c.7-2.05,1.67-3.34,2.6-5.45l49.39-112.01,42.14-95.76,6.76-15.84,14.6-33.72c-29.32,7.06-57.58,14.8-86.11,23.72-20.34,6.35-39.73,13.78-59.91,21.35.48,25.8,1.98,50.83,3.89,76.55,3.55,47.78,8.75,94.85,15.3,142.13.84,6.04,1.37,11.13,3.22,17.3,2.61-6.46,5.96-11.89,8.12-18.26ZM1185.29,201.94c3.81-1.02,5.41-4.02,5.21-7.21-.15-2.51-2.2-5.87-5.59-5.87l-111.35-.08c-3.66.59-5.8,3.17-5.85,6.54-.04,2.75,1.99,6.55,5.63,6.56l111.95.07ZM1109.12,354.18c4.75,4.85,13.81,18.21,21.56,9.98l9.59-10.18c4.01-4.26,7.99-8.11,12.04-12.33l18.7-19.53,12.81-13.4,15.64-16.29,15.34-15.99,15.01-15.67,14.81-15.33,22.25-23.03c3.29-3.4,5.87-8.02,1.75-12.27l-16.81-17.35c-3.31-3.41-7.5-4.94-11.63-2.01-3.28,2.33-5.63,5.72-8.49,8.69l-29.45,30.56-21.61,22.48-8.51,8.81-13.34,14.1-17.28,17.89-17,17.39c-5.88-5.83-11.14-11.12-16.66-16.77l-22.14-22.63c-3.5-4.12-9.33-4.36-13.07-.17-5.22,5.83-10.58,11.35-16.47,16.51-4.02,3.53-3.45,9.05,0,12.56l23.1,23.5,29.86,30.46ZM1148.12,233.65c4.32,0,5.21-5.34,4.64-7.94-.75-3.41-3.59-4.98-7.37-4.97l-72.37.23c-3.44.01-5.45,4.05-5.12,6.71.31,2.55,2.1,6.13,5.38,6.12l74.84-.14ZM1038.04,472.18c2.19,1.97,3.51,4.84,6.57,6.47,1.63.87,2.49,3.65,4.46,3.85,11.73,11.34,24.7,21.58,38.57,31.13l16.17-55.68,13.75-46.3-127.93.05c-1.6,0-.59,2.35-.08,3.1,14.17,20.79,29.93,40.73,48.49,57.39Z"/>
    <g>
      <path class="cls-1" d="M59.18,702.47h77.45c44.48,0,71.89,22.76,71.89,57.83,0,8.58-1.59,16.04-2.38,19.4l-3.58,15.67c-11.52,51.12-34.16,67.16-93.73,67.16h-29.39l-22.64,101.11H0l59.18-261.18ZM113.99,817.01c20.26,0,28.2-6.72,32.97-27.61l3.57-15.67c.79-3.73.79-5.22.79-7.46,0-11.94-7.55-18.28-22.24-18.28h-23.43l-15.89,69.02h24.23Z"/>
      <path class="cls-1" d="M343.95,773.73l-10.72,48.13c-4.77-1.49-13.11-2.24-19.46-2.24-26.21,0-42.89,13.06-49.25,40.67l-23.43,103.35h-54.81l43.29-190.29h46.87l-6.36,35.45c11.52-26.49,28.6-39.18,53.62-39.18,9.53,0,16.28,1.87,20.26,4.1Z"/>
      <path class="cls-1" d="M504.01,827.83c0,6.34-.79,12.31-2.38,19.4l-7.55,33.58h-106.04l-4.37,19.77c-.4,1.87-.79,4.1-.79,6.34,0,13.43,11.92,19.03,27.01,19.03,15.89,0,25.02-8.21,27.8-25h51.63c-5.96,42.16-35.75,66.41-83.41,66.41-41.7,0-77.05-18.28-77.05-58.21,0-7.46,1.19-14.18,2.38-19.4l13.11-57.83c9.13-39.92,35.75-62.31,82.21-62.31,42.1,0,77.45,18.28,77.45,58.2ZM448.81,845.37l1.99-9.33c.4-2.24.79-3.73.79-6.34,0-14.55-12.71-19.03-25.42-19.03-14.7,0-23.43,6.34-26.61,20.15l-3.18,14.55h52.43Z"/>
      <path class="cls-1" d="M621.18,822.61c0-7.83-6.75-13.43-19.86-13.43-15.09,0-22.64,7.46-22.64,17.16,0,13.06,13.11,17.16,34.16,25,23.04,8.58,45.28,19.03,45.28,51.12,0,36.19-27.8,64.92-78.64,64.92-38.53,0-75.06-16.79-75.06-53.73,0-3.36.4-7.46,1.19-11.94h51.63c-.79,4.85-1.19,7.09-1.19,9.33,0,10.07,8.34,16.79,23.04,16.79,15.49,0,24.23-7.83,24.23-17.91,0-13.8-15.49-17.54-32.97-23.88-25.82-9.33-44.88-20.89-44.88-52.98,0-39.55,29.39-63.43,74.67-63.43,37.73,0,72.29,16.42,72.29,49.62,0,3.73-.4,7.83-1.19,11.19h-50.44c.4-3.36.4-5.6.4-7.84Z"/>
      <path class="cls-1" d="M787.19,822.61c0-7.83-6.75-13.43-19.86-13.43-15.09,0-22.64,7.46-22.64,17.16,0,13.06,13.11,17.16,34.16,25,23.04,8.58,45.28,19.03,45.28,51.12,0,36.19-27.8,64.92-78.64,64.92-38.53,0-75.06-16.79-75.06-53.73,0-3.36.4-7.46,1.19-11.94h51.63c-.79,4.85-1.19,7.09-1.19,9.33,0,10.07,8.34,16.79,23.04,16.79,15.49,0,24.23-7.83,24.23-17.91,0-13.8-15.49-17.54-32.97-23.88-25.82-9.33-44.88-20.89-44.88-52.98,0-39.55,29.39-63.43,74.67-63.43,37.73,0,72.29,16.42,72.29,49.62,0,3.73-.4,7.83-1.19,11.19h-50.44c.4-3.36.4-5.6.4-7.84Z"/>
      <path class="cls-1" d="M894.82,702.47h77.45c44.48,0,71.89,22.76,71.89,57.83,0,8.58-1.59,16.04-2.38,19.4l-3.58,15.67c-11.52,51.12-34.16,67.16-93.73,67.16h-29.39l-22.64,101.11h-56.79l59.18-261.18ZM949.63,817.01c20.26,0,28.2-6.72,32.97-27.61l3.57-15.67c.79-3.73.79-5.22.79-7.46,0-11.94-7.55-18.28-22.24-18.28h-23.43l-15.89,69.02h24.23Z"/>
      <path class="cls-1" d="M1224.08,773.36l-43.29,190.29h-46.87l5.56-29.85c-10.72,21.27-29.79,33.58-56.79,33.58-31.38,0-50.04-16.04-50.04-45.89,0-7.46,1.19-14.92,2.78-22.01l28.6-126.11h55.21l-27.01,120.14c-1.19,4.85-1.59,9.33-1.59,11.94,0,13.81,9.53,18.66,21.05,18.66,15.49,0,24.23-8.58,29.39-26.12l28.2-124.62h54.81Z"/>
      <path class="cls-1" d="M1395.66,827.83c0,6.34-.79,12.31-2.38,19.4l-7.55,33.58h-106.04l-4.37,19.77c-.4,1.87-.79,4.1-.79,6.34,0,13.43,11.92,19.03,27.01,19.03,15.89,0,25.02-8.21,27.8-25h51.63c-5.96,42.16-35.75,66.41-83.41,66.41-41.7,0-77.05-18.28-77.05-58.21,0-7.46,1.19-14.18,2.38-19.4l13.11-57.83c9.13-39.92,35.75-62.31,82.21-62.31,42.1,0,77.45,18.28,77.45,58.2ZM1340.45,845.37l1.99-9.33c.4-2.24.79-3.73.79-6.34,0-14.55-12.71-19.03-25.42-19.03-14.7,0-23.43,6.34-26.61,20.15l-3.18,14.55h52.43Z"/>
      <path class="cls-1" d="M1512.82,822.61c0-7.83-6.75-13.43-19.86-13.43-15.09,0-22.64,7.46-22.64,17.16,0,13.06,13.11,17.16,34.16,25,23.04,8.58,45.28,19.03,45.28,51.12,0,36.19-27.8,64.92-78.64,64.92-38.53,0-75.06-16.79-75.06-53.73,0-3.36.4-7.46,1.19-11.94h51.63c-.79,4.85-1.19,7.09-1.19,9.33,0,10.07,8.34,16.79,23.04,16.79,15.49,0,24.23-7.83,24.23-17.91,0-13.8-15.49-17.54-32.97-23.88-25.82-9.33-44.88-20.89-44.88-52.98,0-39.55,29.39-63.43,74.67-63.43,37.73,0,72.29,16.42,72.29,49.62,0,3.73-.4,7.83-1.19,11.19h-50.44c.4-3.36.4-5.6.4-7.84Z"/>
      <path class="cls-1" d="M1643.5,899.84c-.79,2.99-1.19,5.6-1.19,8.21,0,11.57,7.55,14.55,23.04,14.55,3.97,0,7.94-.37,12.71-1.12l-9.53,43.28c-6.35,1.87-12.71,2.61-19.46,2.61-40.11,0-63.15-13.43-63.15-46.27,0-5.6.79-11.94,2.38-18.66l19.86-88.05h-28.6l9.53-41.04h30.19l15.09-48.5h48.85l-11.12,48.5h38.53l-9.53,41.04h-38.13l-19.46,85.44Z"/>
      <path class="cls-1" d="M1701.09,909.17c0-6.34.79-12.31,2.38-19.4l13.11-57.83c9.13-40.3,36.94-62.31,82.61-62.31,41.7,0,76.26,18.66,76.26,58.2,0,6.34-.79,12.31-2.38,19.4l-13.11,57.83c-9.13,40.3-36.94,62.31-82.61,62.31-41.7,0-76.26-18.66-76.26-58.21ZM1805.54,903.2l15.09-64.55c.4-1.49.79-4.48.79-6.72,0-11.57-8.74-19.03-23.83-19.03s-23.04,7.46-26.21,20.89l-15.09,64.55c-.4,1.49-.79,4.1-.79,6.72,0,11.57,7.94,19.03,23.43,19.03s23.43-7.46,26.61-20.89Z"/>
      <path class="cls-1" d="M1882.36,940.32h16.72l-5.32,23.32h-16.72l5.32-23.32Z"/>
      <path class="cls-1" d="M1922.65,934.37c0-4.05.51-7.85,1.52-12.38l9.88-43.08c5.32-23.32,19.51-36.18,44.59-36.18,23.56,0,36.99,11.42,36.99,31.42,0,3.09-.25,6.66-1.01,10.47h-15.71c.76-3.81,1.27-6.9,1.27-10,0-11.9-7.6-19.04-22.04-19.04-15.46,0-24.83,8.09-28.12,23.32l-10.39,45.94c-.25,1.19-1.01,5-1.01,8.81,0,12.38,8.36,19.52,22.8,19.52,15.96,0,24.58-8.33,27.62-23.56l1.77-8.09h15.45l-2.03,8.09c-5.57,23.56-19.25,36.42-43.58,36.42-21.79,0-38-10.23-38-31.65Z"/>
      <path class="cls-1" d="M2020.44,933.89c0-4.05.51-8.57,1.52-12.61l9.37-41.89c5.32-23.56,19.51-36.65,43.83-36.65,22.8,0,39.02,11.42,39.02,32.13,0,4.05-.76,8.33-1.52,12.38l-9.63,41.89c-5.32,23.8-20.27,36.89-44.84,36.89-22.8,0-37.75-11.66-37.75-32.13ZM2087.07,929.37l10.13-44.98c.76-2.86,1.01-5.95,1.01-8.09,0-14.04-9.63-20.71-23.06-20.71-15.46,0-24.32,8.57-27.87,23.8l-10.13,44.98c-.76,2.86-1.01,5.71-1.01,8.09,0,12.85,7.85,20.71,22.8,20.71,15.96,0,24.58-8.57,28.12-23.8Z"/>
      <path class="cls-1" d="M2277.34,868.92c0,4.28-1.01,9.28-1.77,13.09l-18.24,81.64h-16.21l17.99-80.21c.76-3.33,1.52-7.38,1.52-10.23,0-12.14-7.6-17.61-18.5-17.61-13.17,0-23.82,9.28-28.88,25.94v.48l-18.5,81.64h-15.96l17.99-80.21c.76-3.33,1.52-7.38,1.52-10.23,0-12.14-7.85-17.61-18.75-17.61-13.43,0-24.58,10-29.14,27.37l-18.24,80.68h-15.96l26.6-118.53h13.93l-3.29,14.99c7.85-11.19,19.25-17.37,32.18-17.37,15.71,0,26.35,6.66,28.88,19.75,7.6-12.85,19.51-19.75,33.44-19.75,18.24,0,29.39,8.81,29.39,26.18Z"/>
    </g>
  </g>
</svg>